<?xml version="1.0" encoding="utf-8"?>
<!-- Generator: Adobe Illustrator 16.0.0, SVG Export Plug-In . SVG Version: 6.00 Build 0)  -->
<!DOCTYPE svg PUBLIC "-//W3C//DTD SVG 1.1//EN" "http://www.w3.org/Graphics/SVG/1.1/DTD/svg11.dtd">
<svg version="1.1" id="Layer_1" xmlns="http://www.w3.org/2000/svg" xmlns:xlink="http://www.w3.org/1999/xlink" x="0px" y="0px"
	 width="100px" height="100px" viewBox="0 0 100 100" enable-background="new 0 0 100 100" xml:space="preserve">
<g>
	<path fill="#444242" d="M13.405,2.683h10.463l10.85,34.08h-9.504l-1.763-6.672h-9.628l-1.762,6.672H2.509L13.405,2.683z
		 M21.804,23.851l-3.167-12l-3.167,12H21.804z"/>
</g>
<g>
	<path fill="#444242" d="M55.229,63.934L43.221,51.063c-1.064-1.126-1.913-2.089-2.546-2.89c-0.633-0.8-1.083-1.551-1.349-2.252
		c-0.266-0.701-0.399-1.463-0.399-2.29c0-1.451,0.342-2.689,1.026-3.715s1.627-1.808,2.831-2.346
		c1.203-0.538,2.552-0.807,4.047-0.807c1.317,0,2.577,0.219,3.781,0.657c1.203,0.438,2.197,1.126,2.983,2.064
		c0.784,0.938,1.178,2.17,1.178,3.697c0,1.226-0.272,2.352-0.817,3.377c-0.545,1.026-1.291,1.965-2.242,2.815
		c-0.949,0.851-2.032,1.626-3.249,2.328c-0.811,0.471-1.539,0.91-2.185,1.318c-0.646,0.409-1.146,0.817-1.501,1.227
		c-0.355,0.408-0.532,0.86-0.532,1.355c0,0.347,0.107,0.75,0.323,1.207c0.215,0.459,0.57,0.855,1.064,1.189
		c0.494,0.334,1.146,0.501,1.957,0.501c0.836,0,1.704-0.222,2.603-0.665c0.898-0.443,1.734-1.107,2.508-1.995
		c0.773-0.886,1.393-1.988,1.862-3.306c0.468-1.316,0.703-2.85,0.703-4.598h5.813c-0.025,2.762-0.455,5.163-1.291,7.202
		s-1.945,3.723-3.326,5.053s-2.906,2.318-4.578,2.965c-1.672,0.646-3.357,0.969-5.054,0.969c-2.078,0-3.826-0.418-5.244-1.257
		c-1.419-0.839-2.483-1.907-3.192-3.21c-0.709-1.301-1.064-2.639-1.064-4.015c0-1.451,0.335-2.716,1.007-3.792
		c0.671-1.075,1.501-2.013,2.489-2.813c0.988-0.801,1.95-1.489,2.888-2.064c1.089-0.667,1.957-1.186,2.603-1.557
		c0.646-0.37,1.115-0.709,1.406-1.018c0.291-0.309,0.437-0.673,0.437-1.093c0-0.419-0.121-0.741-0.361-0.963
		s-0.564-0.333-0.969-0.333c-0.279,0-0.526,0.062-0.741,0.185c-0.215,0.124-0.374,0.284-0.475,0.482
		c-0.101,0.198-0.152,0.433-0.152,0.705c0,0.321,0.107,0.611,0.323,0.871c0.215,0.26,0.576,0.606,1.083,1.038
		c0.506,0.433,1.19,1.106,2.052,2.021l15.771,16.625H55.229z"/>
</g>
<g>
	<path fill="#444242" d="M64.564,80.074c0-2.08,0.391-4.119,1.176-6.12c0.783-1.999,1.928-3.815,3.432-5.448
		c1.504-1.632,3.336-2.936,5.496-3.912c2.16-0.975,4.6-1.463,7.32-1.463c3.264,0,6.111,0.68,8.545,2.039
		c2.43,1.361,4.238,3.16,5.424,5.4l-7.152,5.088c-0.416-1.119-1.018-1.984-1.801-2.592s-1.631-1.032-2.543-1.271
		c-0.912-0.24-1.801-0.361-2.664-0.361c-1.345,0-2.505,0.265-3.48,0.793c-0.977,0.527-1.775,1.224-2.4,2.088
		c-0.623,0.863-1.088,1.824-1.392,2.88c-0.305,1.056-0.456,2.112-0.456,3.168c0,1.185,0.176,2.32,0.527,3.407
		c0.353,1.089,0.865,2.058,1.537,2.905s1.495,1.512,2.472,1.991c0.976,0.479,2.071,0.72,3.288,0.72c0.863,0,1.744-0.135,2.641-0.408
		c0.895-0.271,1.711-0.711,2.447-1.319c0.736-0.607,1.295-1.423,1.68-2.448l7.633,4.561c-0.672,1.664-1.793,3.088-3.361,4.271
		c-1.568,1.185-3.344,2.088-5.328,2.713c-1.984,0.623-3.951,0.936-5.903,0.936c-2.528,0-4.841-0.504-6.937-1.512
		s-3.904-2.353-5.424-4.033c-1.52-1.68-2.695-3.566-3.527-5.663C64.98,84.387,64.564,82.25,64.564,80.074z"/>
</g>
</svg>
